<?xml version="1.0" standalone="no"?>
<!DOCTYPE svg PUBLIC "-//W3C//DTD SVG 20010904//EN"
 "http://www.w3.org/TR/2001/REC-SVG-20010904/DTD/svg10.dtd">
<svg version="1.0" xmlns="http://www.w3.org/2000/svg"
 width="300.000000pt" height="158.000000pt" viewBox="0 0 300.000000 158.000000"
 preserveAspectRatio="xMidYMid meet">
<metadata>
Created by potrace 1.10, written by Peter Selinger 2001-2011
</metadata>
<g transform="translate(0.000000,158.000000) scale(0.100000,-0.100000)"
fill="#000000" stroke="none">
<path d="M812 1530 c-18 -11 -41 -34 -52 -52 -19 -32 -20 -52 -20 -688 0 -636
1 -656 20 -688 11 -18 34 -41 52 -52 32 -19 52 -20 688 -20 636 0 656 1 688
20 18 11 41 34 52 52 19 32 20 52 20 688 0 636 -1 656 -20 688 -11 18 -34 41
-52 52 -32 19 -52 20 -688 20 -636 0 -656 -1 -688 -20z m347 -207 c39 -29 63
-81 57 -126 -6 -53 -31 -86 -81 -108 -75 -33 -149 -3 -179 72 -19 48 -14 89
17 133 40 56 129 70 186 29z m718 -392 c63 -31 99 -67 127 -123 26 -52 26 -53
26 -305 l0 -254 -112 3 -113 3 -5 228 -5 229 -33 29 c-24 22 -42 29 -72 29
-30 0 -48 -7 -72 -29 l-33 -29 -5 -229 -5 -228 -112 -3 -113 -3 0 346 0 345
115 0 115 0 1 -42 c0 -24 3 -37 6 -30 6 16 79 66 118 80 41 16 125 8 172 -17z
m-679 -333 l-3 -343 -112 -3 -113 -3 0 346 0 345 115 0 115 0 -2 -342z"/>
</g>
</svg>
