<?xml version="1.0" standalone="no"?>
<!DOCTYPE svg PUBLIC "-//W3C//DTD SVG 20010904//EN"
 "http://www.w3.org/TR/2001/REC-SVG-20010904/DTD/svg10.dtd">
<svg version="1.0" xmlns="http://www.w3.org/2000/svg"
 width="746.000000pt" height="262.000000pt" viewBox="0 0 746.000000 262.000000"
 preserveAspectRatio="xMidYMid meet">

<g transform="translate(0.000000,262.000000) scale(0.100000,-0.100000)"
fill="#000000" stroke="none">
<path d="M602 2440 c-109 -29 -187 -74 -273 -160 -56 -55 -86 -95 -113 -150
-64 -132 -66 -147 -66 -801 0 -551 1 -590 20 -663 29 -113 73 -190 161 -278
58 -59 94 -86 150 -113 147 -70 -105 -65 3245 -65 2986 0 3032 0 3108 20 113
29 190 73 278 161 59 58 86 94 113 150 63 134 65 149 65 800 0 551 -1 590 -20
663 -29 113 -73 190 -160 277 -55 56 -95 86 -150 113 -146 71 111 66 -3250 65
-2956 0 -3037 -1 -3108 -19z m6190 -91 c178 -37 334 -185 380 -358 15 -59 17
-131 17 -648 1 -388 -3 -600 -10 -635 -37 -178 -185 -334 -358 -380 -62 -16
-265 -17 -3093 -17 -2173 -1 -3042 2 -3080 10 -178 37 -334 185 -380 358 -15
59 -17 131 -17 648 -1 388 3 600 10 635 38 182 191 340 372 384 71 17 6078 20
6159 3z"/>
<path d="M1425 2025 c-91 -20 -168 -49 -237 -91 -85 -51 -215 -183 -266 -269
-148 -254 -131 -574 43 -815 93 -128 283 -262 375 -264 l35 -1 3 82 3 82 -65
0 c-106 -1 -156 25 -189 100 -11 25 -40 65 -64 88 -46 43 -49 63 -10 63 34 0
81 -34 117 -84 18 -25 47 -52 65 -60 59 -28 155 -15 155 21 0 10 9 32 19 49
l19 30 -61 13 c-168 35 -257 136 -273 310 -8 83 7 152 45 210 25 37 27 47 20
84 -8 45 -2 110 13 141 14 26 75 15 153 -27 60 -33 60 -33 125 -20 36 6 90 12
120 12 30 0 84 -6 120 -12 65 -13 65 -13 125 20 78 42 139 53 153 27 15 -30
21 -95 13 -139 -6 -33 -3 -47 20 -85 40 -66 52 -124 45 -207 -14 -176 -104
-279 -273 -314 l-60 -12 21 -36 c18 -31 22 -57 26 -186 l5 -150 35 1 c92 2
282 136 375 264 143 198 181 443 104 681 -62 193 -257 394 -447 461 -136 48
-285 60 -407 33z"/>
<path d="M2960 1366 l0 -286 40 0 40 0 0 125 0 125 75 0 c71 0 76 -1 108 -33
18 -19 59 -75 91 -125 l58 -92 44 0 c24 0 44 3 44 6 0 16 -130 203 -157 224
l-30 25 51 25 c89 44 120 128 78 209 -35 71 -52 76 -258 79 l-184 4 0 -286z
m341 201 c27 -18 35 -30 37 -59 7 -83 -38 -108 -193 -108 l-105 0 0 95 0 95
114 0 c101 0 117 -2 147 -23z"/>
<path d="M5270 1610 c0 -39 1 -40 35 -40 34 0 35 1 35 40 0 39 -1 40 -35 40
-34 0 -35 -1 -35 -40z"/>
<path d="M5483 1612 c-16 -13 -23 -30 -25 -67 -3 -43 -6 -50 -25 -53 -35 -5
-32 -52 2 -52 l25 0 0 -160 c0 -192 4 -200 96 -200 47 0 55 3 50 16 -3 9 -6
22 -6 29 0 8 -13 15 -32 17 l-33 3 -3 148 -3 147 36 0 c31 0 35 3 35 25 0 22
-4 25 -35 25 l-35 0 0 70 c0 76 -7 84 -47 52z"/>
<path d="M3612 1484 c-74 -38 -107 -111 -100 -225 4 -77 37 -137 90 -166 50
-27 163 -24 208 4 36 22 70 69 70 97 0 25 -67 22 -75 -4 -11 -34 -54 -60 -100
-60 -50 0 -91 28 -111 76 -27 65 -30 64 142 64 l157 0 -5 48 c-6 63 -33 118
-76 150 -45 34 -148 42 -200 16z m131 -47 c39 -17 55 -35 67 -76 l9 -31 -119
0 c-118 0 -118 0 -112 23 9 37 35 69 67 83 38 17 49 17 88 1z"/>
<path d="M4076 1475 c-34 -23 -36 -23 -36 -5 0 16 -7 20 -30 20 l-30 0 0 -285
0 -285 35 0 35 0 0 95 0 95 37 -20 c46 -25 86 -25 138 -1 73 33 107 97 108
201 1 81 -31 154 -82 187 -48 33 -126 32 -175 -2z m124 -40 c43 -22 62 -66 62
-145 0 -106 -39 -160 -113 -160 -89 0 -138 127 -92 241 16 42 62 79 96 79 10
0 31 -7 47 -15z"/>
<path d="M4505 1486 c-37 -17 -80 -62 -94 -99 -18 -46 -13 -166 8 -213 33 -73
112 -112 201 -100 105 14 159 88 160 214 0 103 -39 173 -113 201 -39 15 -126
13 -162 -3z m153 -62 c73 -48 68 -233 -7 -277 -60 -35 -136 -13 -165 47 -22
46 -21 141 2 186 32 64 108 84 170 44z"/>
<path d="M4914 1481 c-68 -42 -84 -106 -38 -160 19 -23 44 -36 97 -52 111 -31
137 -45 137 -71 0 -43 -35 -68 -94 -68 -49 0 -83 18 -97 52 -10 24 -17 29 -43
26 -26 -3 -31 -7 -28 -28 8 -69 88 -116 183 -107 98 9 149 54 149 132 0 58
-36 88 -145 120 -52 16 -100 34 -106 42 -20 23 -2 61 36 73 47 16 89 5 119
-31 24 -29 50 -36 73 -21 20 13 -17 74 -57 94 -49 25 -145 24 -186 -1z"/>
<path d="M5735 1477 c-140 -79 -117 -345 34 -396 107 -35 224 22 250 123 31
124 -4 233 -89 276 -55 28 -143 27 -195 -3z m182 -72 c85 -89 34 -275 -75
-275 -84 0 -126 54 -126 162 0 78 18 111 75 141 45 23 86 14 126 -28z"/>
<path d="M6199 1468 l-29 -32 0 27 c0 23 -4 27 -30 27 l-30 0 0 -205 0 -205
34 0 34 0 4 144 c3 129 5 148 24 173 18 24 28 28 67 27 43 0 47 2 53 29 8 36
-6 47 -59 47 -30 0 -44 -7 -68 -32z"/>
<path d="M5270 1285 l0 -205 35 0 35 0 0 205 0 205 -35 0 -35 0 0 -205z"/>
<path d="M6420 1284 l78 -207 -18 -42 c-19 -45 -34 -55 -81 -55 -24 0 -29 -4
-29 -25 0 -56 92 -58 134 -2 13 18 67 146 119 285 l95 253 -36 -3 -36 -3 -53
-140 c-28 -77 -52 -149 -52 -160 -1 -36 -18 -1 -71 153 l-52 152 -38 0 -38 0
78 -206z"/>
</g>
</svg>
